<svg width="91" height="72" viewBox="0 0 91 72" fill="none" xmlns="http://www.w3.org/2000/svg">
<path d="M80.3696 22.7642H90.9221C90.8783 22.2929 90.81 21.8264 90.7272 21.3648H80.3696V22.7642Z" fill="#00AEEC"/>
<path d="M51.5001 43.7355C51.0809 43.75 50.5935 43.7355 50.0476 43.7063C49.838 43.716 49.6333 43.7257 49.4237 43.7355C24.6095 44.717 3.03658 37.2099 3.26567 23.3667C3.47525 10.6654 19.9596 0.60251 45.0662 0.238089L45.5 0C18.1074 0 0 9.85882 0 24.4211C0 38.8328 18.1074 48.8471 45.5 48.8471C57.3539 48.8471 67.4336 46.991 75.0714 43.7306L51.5001 43.7355ZM51.5001 43.7695V43.75C51.5244 43.7452 51.5439 43.7452 51.5439 43.7452L51.5001 43.7695Z" fill="#01519D"/>
<path d="M56.1793 37.1613V41.0582H80.277C82.2023 39.8726 83.8936 38.5704 85.3266 37.1613H56.1793Z" fill="#01519D"/>
<path d="M19.0626 20.67H15.3827V16.4232H11.9318V28.007H15.3827V23.4201H19.0626V28.007H22.5184V16.4232H19.0626V20.67Z" fill="#01519D"/>
<path d="M25.9692 22.5018C25.9692 24.7952 25.5061 25.4852 23.6686 25.1402V28.007C25.6231 28.352 27.3485 28.007 28.2697 26.8603C29.191 25.8253 29.3079 23.9935 29.3079 22.5018V19.1783H31.4915V28.0119H34.8303V16.4232H25.9692V22.5018Z" fill="#01519D"/>
<path d="M45.0708 16.4232L43.1114 23.3035L41.1569 16.4232H37.706L36.0927 28.007H39.3145L40.1187 21.8118L41.9611 28.007H44.2617L46.1041 21.8118L46.9084 28.007H50.1302L48.5217 16.4232H45.0708Z" fill="#01519D"/>
<path d="M61.9841 16.4232H58.1872L54.8484 21.1267V16.4232H51.3975V28.007H54.8484V23.3035L57.9532 28.007H62.0962L57.612 22.1568L61.9841 16.4232Z" fill="#01519D"/>
<path d="M7.94946 58.5942H8.81706V60.9216L10.7618 58.5942H11.8049L9.77726 60.8828L11.9316 63.5066H10.8349L8.82193 60.9751V63.5066H7.95434V58.5942H7.94946Z" fill="#01519D"/>
<path d="M16.0066 58.5164C17.4688 58.5164 18.5752 59.5174 18.5752 61.048C18.5752 62.5202 17.4688 63.5795 16.0066 63.5795C14.5443 63.5795 13.4428 62.5785 13.4428 61.048C13.4476 59.6243 14.4956 58.5164 16.0066 58.5164ZM16.0066 62.7777C17.0399 62.7777 17.6589 62.0197 17.6589 61.0528C17.6589 60.0373 16.9326 59.3279 16.0066 59.3279C15.061 59.3279 14.3591 60.0373 14.3591 61.0528C14.364 62.0295 15.0853 62.7777 16.0066 62.7777Z" fill="#01519D"/>
<path d="M20.9828 63.5066V58.5942C21.2558 58.5942 22.0405 58.5796 22.3817 58.5796C23.8342 58.5796 24.2875 59.3522 24.2875 60.1588C24.2875 60.9945 23.6587 61.7525 22.484 61.7525C22.3378 61.7525 22.0551 61.7525 21.8455 61.7331V63.5066H20.9828ZM21.8504 59.4008V60.9071C22.0551 60.9265 22.2647 60.9411 22.4646 60.9411C22.9763 60.9411 23.3809 60.6933 23.3809 60.1491C23.3809 59.6389 23.0641 59.3862 22.4743 59.3862C22.294 59.3862 22.0795 59.3911 21.8504 59.4008Z" fill="#01519D"/>
<path d="M29.7614 59.4008H27.5632V63.5066H26.6956V58.5942H30.6241V63.5066H29.7565V59.4008H29.7614Z" fill="#01519D"/>
<path d="M35.5908 58.5164C37.053 58.5164 38.1595 59.5174 38.1595 61.048C38.1595 62.5202 37.053 63.5795 35.5908 63.5795C34.1286 63.5795 33.027 62.5785 33.027 61.048C33.0319 59.6243 34.0798 58.5164 35.5908 58.5164ZM35.5908 62.7777C36.6241 62.7777 37.2431 62.0197 37.2431 61.0528C37.2431 60.0373 36.5169 59.3279 35.5908 59.3279C34.6452 59.3279 33.9433 60.0373 33.9433 61.0528C33.9482 62.0295 34.6696 62.7777 35.5908 62.7777Z" fill="#01519D"/>
<path d="M40.5673 63.5066V58.5942C40.8402 58.5942 41.625 58.5796 41.9662 58.5796C43.4138 58.5796 43.8719 59.3522 43.8719 60.1588C43.8719 60.9945 43.2432 61.7525 42.0685 61.7525C41.9223 61.7525 41.6396 61.7525 41.43 61.7331V63.5066H40.5673ZM41.4349 59.4008V60.9071C41.6396 60.9265 41.8492 60.9411 42.049 60.9411C42.5608 60.9411 42.9654 60.6933 42.9654 60.1491C42.9654 59.6389 42.6485 59.3862 42.0588 59.3862C41.8784 59.3862 41.664 59.3911 41.4349 59.4008Z" fill="#01519D"/>
<path d="M47.2788 58.5796H48.0392L50.1204 63.5066H49.1992L48.6875 62.253H46.5818L46.07 63.5066H45.1976L47.2788 58.5796ZM46.9133 61.4416H48.356L47.6395 59.6923L46.9133 61.4416Z" fill="#01519D"/>
<path d="M55.2823 58.5942V59.4008H53.6836V63.5066H52.816V59.4008H51.2172V58.5942H55.2823Z" fill="#01519D"/>
<path d="M57.4416 63.5066V58.5942H58.3092V62.0878L60.8925 58.5942H61.6529V63.5066H60.7853V60.0179L58.202 63.5066H57.4416Z" fill="#01519D"/>
<path d="M64.4212 58.6088C64.6942 58.5942 65.3522 58.5748 65.8445 58.5748C67.0191 58.5748 67.4627 59.1093 67.4627 59.7895C67.4627 60.3532 67.18 60.7079 66.7608 60.9071V60.9217C67.2482 61.0431 67.6284 61.4124 67.6284 62.0635C67.6284 63.0742 66.8388 63.5358 65.8006 63.5358C65.3522 63.5358 64.7185 63.5212 64.4261 63.5018V58.6088H64.4212ZM65.2888 59.4008V60.6447H65.8737C66.2734 60.6447 66.6048 60.4406 66.6048 59.9936C66.6048 59.5952 66.2929 59.3814 65.8298 59.3814C65.6349 59.3814 65.4448 59.3862 65.2888 59.4008ZM65.2888 62.6903C65.4107 62.7049 65.6105 62.7243 65.8591 62.7243C66.444 62.7243 66.7608 62.4765 66.7608 62.0149C66.7608 61.6019 66.444 61.3881 65.903 61.3881H65.2888V62.6903Z" fill="#01519D"/>
<path d="M73.2921 61.4075H71.0402V63.5066H70.1726V58.5942H71.0402V60.6009H73.2921V58.5942H74.1499V63.5066H73.2921V61.4075Z" fill="#01519D"/>
<path d="M77.7861 60.2754C78.0054 60.2463 78.1955 60.2414 78.3369 60.2414C79.5554 60.2414 80.1403 60.8633 80.1403 61.8254C80.1403 62.8652 79.4092 63.5163 78.1468 63.5163C77.6837 63.5163 77.211 63.5018 76.9234 63.5018V58.5893H77.791V60.2754H77.7861ZM77.7861 61.082V62.6903C77.9421 62.6952 78.0834 62.7097 78.2491 62.7097C78.8828 62.7097 79.2191 62.4231 79.2191 61.8448C79.2191 61.3201 78.8682 61.0431 78.2638 61.0431C78.1322 61.048 77.9859 61.0626 77.7861 61.082ZM80.7788 58.5942H81.6367V63.5066H80.7788V58.5942Z" fill="#01519D"/>
<path d="M84.4103 63.5066V58.5942H85.2779V62.0878L87.8611 58.5942H88.6215V63.5066H87.7539V60.0179L85.1706 63.5066H84.4103ZM85.9992 57.3989C86.0577 57.671 86.2478 57.807 86.5987 57.807C86.9156 57.807 87.1349 57.7001 87.1593 57.3989H87.9684C87.9489 58.0014 87.3689 58.4047 86.5939 58.4047C85.7506 58.4047 85.234 57.9965 85.1852 57.3989H85.9992Z" fill="#01519D"/>
<path d="M10.3136 70.7804C9.97726 71.5287 9.58733 71.9223 8.97806 71.9223C8.72461 71.9223 8.43704 71.83 8.30056 71.7279L8.60276 70.9991C8.73436 71.0914 8.82697 71.1206 8.96832 71.1206C9.20227 71.1206 9.35337 70.9894 9.45573 70.7756L9.52397 70.6055L7.3501 67.0147H8.3298L9.94314 69.7601L11.1178 67.0147H11.9903L10.3136 70.7804Z" fill="#01519D"/>
<path d="M17.2834 69.8232H15.0315V71.9223H14.1639V67.0099H15.0315V69.0166H17.2834V67.0099H18.1412V71.9223H17.2834V69.8232Z" fill="#01519D"/>
<path d="M20.9147 71.9223V67.0099H21.7823V70.5035L24.3656 67.0099H25.1259V71.9223H24.2583V68.4335L21.675 71.9223H20.9147Z" fill="#01519D"/>
<path d="M27.8945 67.0245C28.1675 67.0099 28.8255 66.9905 29.3178 66.9905C30.4924 66.9905 30.936 67.5249 30.936 68.2052C30.936 68.7688 30.6533 69.1235 30.2341 69.3228V69.3373C30.7215 69.4588 31.1017 69.8281 31.1017 70.4792C31.1017 71.4899 30.3121 71.9515 29.2739 71.9515C28.8255 71.9515 28.1918 71.9369 27.8994 71.9174V67.0245H27.8945ZM28.7572 67.8165V69.0604H29.3421C29.7418 69.0604 30.0732 68.8563 30.0732 68.4093C30.0732 68.0108 29.7613 67.7971 29.2983 67.7971C29.1033 67.7971 28.9132 67.8068 28.7572 67.8165ZM28.7572 71.1109C28.8791 71.1254 29.0789 71.1449 29.3275 71.1449C29.9124 71.1449 30.2292 70.8971 30.2292 70.4355C30.2292 70.0225 29.9124 69.8087 29.3714 69.8087H28.7572V71.1109Z" fill="#01519D"/>
<path d="M33.6413 67.0099H36.4927V67.8165H34.5089V69.0361H36.2831V69.8427H34.5089V71.1108H36.5658V71.9174H33.6462V67.0099H33.6413Z" fill="#01519D"/>
<path d="M39.095 71.9223V67.0099C39.368 67.0099 40.1527 66.9953 40.4939 66.9953C41.9464 66.9953 42.3997 67.7679 42.3997 68.5745C42.3997 69.4102 41.7709 70.1682 40.5962 70.1682C40.45 70.1682 40.1673 70.1682 39.9577 70.1488V71.9223H39.095ZM39.9626 67.8165V69.3228C40.1673 69.3422 40.3769 69.3568 40.5767 69.3568C41.0885 69.3568 41.4931 69.109 41.4931 68.5648C41.4931 68.0546 41.1763 67.8019 40.5865 67.8019C40.4061 67.8068 40.1917 67.8116 39.9626 67.8165Z" fill="#01519D"/>
<path d="M48.5271 71.4462C48.2152 71.7766 47.5913 72.0001 46.9528 72.0001C45.4466 72.0001 44.4133 70.9991 44.4133 69.4686C44.4133 68.0595 45.3053 66.937 46.9333 66.937C47.5718 66.937 48.1079 67.1411 48.4345 67.4375L48.0494 68.074C47.7521 67.8797 47.4304 67.7436 46.9381 67.7436C46.0218 67.7436 45.3345 68.4044 45.3345 69.4686C45.3345 70.4938 46.0315 71.1935 47.0356 71.1935C47.4499 71.1935 47.8642 71.0623 48.2054 70.7999L48.5271 71.4462Z" fill="#01519D"/>
<path d="M50.7931 71.9223V67.0099H51.6607V70.5035L54.244 67.0099H55.0043V71.9223H54.1367V68.4335L51.5534 71.9223H50.7931Z" fill="#01519D"/>
<path d="M61.219 67.0099V67.8165H59.6203V71.9223H58.7527V67.8165H57.154V67.0099H61.219Z" fill="#01519D"/>
<path d="M63.3827 67.0099H66.2341V67.8165H64.2503V69.0361H66.0245V69.8427H64.2503V71.1108H66.3072V71.9174H63.3876V67.0099H63.3827Z" fill="#01519D"/>
<path d="M72.283 67.0099V67.8165H70.6843V71.9223H69.8167V67.8165H68.218V67.0099H72.283Z" fill="#01519D"/>
<path d="M63.9241 32.2391V35.4363H86.9105C87.7488 34.416 88.4605 33.347 89.0502 32.2391H63.9241Z" fill="#01519D"/>
<path d="M70.8795 27.9633V30.5142H89.8496C90.1762 29.6834 90.4345 28.833 90.6246 27.9633H70.8795Z" fill="#01519D"/>
<path d="M75.8218 24.4843V26.2433H90.9024C90.9657 25.665 90.995 25.0771 90.9999 24.4843H75.8218Z" fill="#01519D"/>
</svg>
