<svg width="72" height="72" viewBox="0 0 72 72" fill="currentColor" xmlns="http://www.w3.org/2000/svg">
<path fill-rule="evenodd" clip-rule="evenodd" d="M36 70C54.7777 70 70 54.7777 70 36C70 17.2223 54.7777 2 36 2C17.2223 2 2 17.2223 2 36C2 54.7777 17.2223 70 36 70ZM36 72C55.8823 72 72 55.8823 72 36C72 16.1177 55.8823 0 36 0C16.1177 0 0 16.1177 0 36C0 55.8823 16.1177 72 36 72Z"/>
<path fill-rule="evenodd" clip-rule="evenodd" d="M48 36L30 25.6077V46.3923L48 36ZM44 36L32 29.0718V42.9282L44 36Z"/>
</svg>
